#!OML:ASF H:\Not Pregnant\Project 1\Capture day 1\Session 1\non-pregnant.ASF
:FULLY-SPECIFIED
:DEGREES
646
root -8.14995 16.9981 -28.177 -167.216 2.72013 -177.004
lowerback -6.68125 1.02984 3.46544
upperback -8.4546 2.26365 0.463615
thorax -4.9675 1.36778 -1.43923
lowerneck 22.2202 -6.36157 -30.6082
upperneck -9.2178 -21.0933 43.9373
head 2.67831 -14.9109 23.5113
rclavicle -1.93007e-014 -4.09993e-015
rhumerus -38.6343 -6.70946 -84.014
rradius 23.5714
rwrist 25.1834
rhand -7.93662 -0.716719
rfingers 7.12502
rthumb 17.9698 -29.9066
lclavicle -1.93007e-014 -4.09993e-015
lhumerus -42.4853 -9.7346 92.7021
lradius 35.8242
lwrist 38.5592
lhand -16.087 -13.1306
lfingers 7.12502
lthumb 10.1162 16.6063
rfemur -19.9147 -12.4227 26.0225
rtibia 27.5653
rfoot -21.1596 20.0139
rtoes -3.98878
lfemur -19.9986 6.59731 -19.437
ltibia 29.5392
lfoot -22.0845 -10.2935
ltoes -11.4181
647
root -8.14982 16.9975 -28.1738 -167.23 2.78175 -177
lowerback -6.65221 1.01832 3.45381
upperback -8.45845 2.24949 0.476207
thorax -4.98927 1.36092 -1.42114
lowerneck 22.179 -6.34719 -30.6113
upperneck -9.09436 -21.083 43.8837
head 2.70265 -14.8948 23.4688
rclavicle 6.36422e-015 -6.16232e-015
rhumerus -38.6207 -6.74121 -84.061
rradius 23.5569
rwrist 25.1418
rhand -7.88997 -0.719089
rfingers 7.12502
rthumb 18.0147 -29.9048
lclavicle 6.36422e-015 -6.16232e-015
lhumerus -42.4939 -9.86208 92.824
lradius 35.8066
lwrist 38.4625
lhand -16.0229 -13.1624
lfingers 7.12502
lthumb 10.1781 16.5714
rfemur -19.9199 -12.3913 26.0222
rtibia 27.5797
rfoot -21.164 20.0258
rtoes -3.99558
lfemur -19.9866 6.56842 -19.4322
ltibia 29.548
lfoot -22.0742 -10.2005
ltoes -11.4971
648
root -8.14951 16.9969 -28.1705 -167.245 2.85457 -176.989
lowerback -6.64237 1.01272 3.44845
upperback -8.4452 2.23908 0.487896
thorax -4.98156 1.35516 -1.40616
lowerneck 22.1293 -6.33736 -30.6104
upperneck -8.98785 -21.071 43.8375
head 2.72466 -14.8781 23.4294
rclavicle -2.53388e-014 -1.23246e-014
rhumerus -38.5791 -6.74771 -84.1279
rradius 23.5428
rwrist 25.106
rhand -7.84983 -0.70984
rfingers 7.12502
rthumb 18.0533 -29.892
lclavicle -2.53388e-014 -1.23246e-014
lhumerus -42.4734 -10.0043 92.9459
lradius 35.7616
lwrist 38.4137
lhand -15.9867 -13.1753
lfingers 7.12502
lthumb 10.213 16.5567
rfemur -19.9209 -12.3393 26.0274
rtibia 27.589
rfoot -21.1645 20.0242
rtoes -4.0057
lfemur -19.9739 6.54217 -19.4198
ltibia 29.56
lfoot -22.0649 -10.0994
ltoes -11.573
649
root -8.14919 16.9962 -28.1673 -167.263 2.93879 -176.971
lowerback -6.64762 1.01359 3.45196
upperback -8.41703 2.23362 0.49888
thorax -4.94889 1.35099 -1.39576
lowerneck 22.0711 -6.33139 -30.607
upperneck -8.89357 -21.057 43.7958
head 2.74488 -14.86 23.3915
rclavicle -1.45703e-014 -7.97623e-015
rhumerus -38.5145 -6.73013 -84.2123
rradius 23.5347
rwrist 25.0683
rhand -7.80457 -0.702268
rfingers 7.12502
rthumb 18.0969 -29.8804
lclavicle -1.45703e-014 -7.97623e-015
lhumerus -42.4315 -10.1351 93.0534
lradius 35.7098
lwrist 38.3766
lhand -15.9545 -13.1338
lfingers 7.12502
lthumb 10.244 16.5968
rfemur -19.9156 -12.2749 26.0377
rtibia 27.5927
rfoot -21.1615 20.0233
rtoes -4.01306
lfemur -19.9572 6.51775 -19.4003
ltibia 29.5743
lfoot -22.0572 -9.98404
ltoes -11.6547
650
root -8.14882 16.9957 -28.1642 -167.282 3.03489 -176.948
lowerback -6.65882 1.01995 3.46035
upperback -8.38322 2.2341 0.509967
thorax -4.90647 1.3494 -1.38743
lowerneck 22.0143 -6.32613 -30.6051
upperneck -8.80854 -21.0427 43.7584
head 2.76351 -14.8424 23.3577
rclavicle -1.44305e-014 -7.57867e-015
rhumerus -38.4472 -6.68669 -84.3094
rradius 23.5391
rwrist 25.0343
rhand -7.76022 -0.682727
rfingers 7.12502
rthumb 18.1395 -29.8569
lclavicle -1.44305e-014 -7.57867e-015
lhumerus -42.3835 -10.2412 93.1425
lradius 35.6615
lwrist 38.339
lhand -15.9131 -13.024
lfingers 7.12502
lthumb 10.284 16.7046
rfemur -19.9065 -12.1924 26.0516
rtibia 27.5907
rfoot -21.1546 20.0204
rtoes -4.02027
lfemur -19.938 6.49456 -19.3755
ltibia 29.5894
lfoot -22.0497 -9.85291
ltoes -11.7487
651
root -8.14858 16.9952 -28.1611 -167.301 3.13889 -176.918
lowerback -6.67039 1.02889 3.47345
upperback -8.3484 2.2379 0.524565
thorax -4.86266 1.34934 -1.37798
lowerneck 21.9563 -6.32162 -30.6075
upperneck -8.72375 -21.0287 43.7191
head 2.78275 -14.824 23.3231
rclavicle 3.52222e-015 1.63997e-015
rhumerus -38.3806 -6.61299 -84.416
rradius 23.5539
rwrist 25.0021
rhand -7.71728 -0.657537
rfingers 7.12502
rthumb 18.1809 -29.8279
lclavicle 3.52222e-015 1.63997e-015
lhumerus -42.3388 -10.3136 93.217
lradius 35.6171
lwrist 38.2973
lhand -15.8675 -12.8764
lfingers 7.12502
lthumb 10.328 16.85
rfemur -19.893 -12.1113 26.0707
rtibia 27.5845
rfoot -21.1508 20.0305
rtoes -4.03496
lfemur -19.9148 6.47372 -19.3451
ltibia 29.6036
lfoot -22.0436 -9.71131
ltoes -11.8557
652
root -8.14849 16.9949 -28.1583 -167.32 3.24886 -176.887
lowerback -6.67661 1.03829 3.48541
upperback -8.31734 2.24341 0.542713
thorax -4.82599 1.3504 -1.36445
lowerneck 21.8965 -6.31902 -30.6163
upperneck -8.6367 -21.0171 43.6757
head 2.80431 -14.8056 23.2858
rclavicle -5.889e-015 -1.33931e-014
rhumerus -38.3223 -6.50659 -84.5308
rradius 23.5838
rwrist 24.9673
rhand -7.67732 -0.634052
rfingers 7.12502
rthumb 18.2193 -29.8008
lclavicle -5.889e-015 -1.33931e-014
lhumerus -42.3035 -10.3509 93.2803
lradius 35.5707
lwrist 38.2456
lhand -15.8195 -12.7249
lfingers 7.12502
lthumb 10.3743 16.9992
rfemur -19.8791 -12.0361 26.0907
rtibia 27.5759
rfoot -21.146 20.0593
rtoes -4.03862
lfemur -19.8892 6.45397 -19.3143
ltibia 29.615
lfoot -22.0364 -9.56596
ltoes -11.9575
653
root -8.14851 16.9946 -28.1556 -167.338 3.36271 -176.86
lowerback -6.6796 1.04739 3.49049
upperback -8.29224 2.25008 0.561562
thorax -4.79766 1.35265 -1.34665
lowerneck 21.8463 -6.31182 -30.6316
upperneck -8.54922 -21.0034 43.6314
head 2.82388 -14.7867 23.2528
rclavicle 1.13245e-014 6.01324e-015
rhumerus -38.2772 -6.37256 -84.652
rradius 23.6272
rwrist 24.9262
rhand -7.64011 -0.616291
rfingers 7.12502
rthumb 18.2551 -29.7797
lclavicle 1.13245e-014 6.01324e-015
lhumerus -42.2826 -10.3599 93.3357
lradius 35.5131
lwrist 38.1847
lhand -15.7766 -12.5997
lfingers 7.12502
lthumb 10.4157 17.1223
rfemur -19.867 -11.9693 26.1057
rtibia 27.5674
rfoot -21.1405 20.105
rtoes -4.03291
lfemur -19.8617 6.43696 -19.2898
ltibia 29.6225
lfoot -22.031 -9.42113
ltoes -12.0584
654
root -8.14886 16.9942 -28.1533 -167.356 3.48726 -176.837
lowerback -6.67134 1.0586 3.49403
upperback -8.27935 2.26215 0.57768
thorax -4.78842 1.35787 -1.33142
lowerneck 21.811 -6.29923 -30.6468
upperneck -8.45609 -20.9876 43.5823
head 2.83991 -14.7676 23.2199
rclavicle -8.69528e-015 1.47846e-015
rhumerus -38.252 -6.22435 -84.7777
rradius 23.6765
rwrist 24.8821
rhand -7.60969 -0.603233
rfingers 7.12502
rthumb 18.2844 -29.7639
lclavicle -8.69528e-015 1.47846e-015
lhumerus -42.2904 -10.3474 93.3844
lradius 35.4421
lwrist 38.1156
lhand -15.7317 -12.4897
lfingers 7.12502
lthumb 10.459 17.2301
rfemur -19.8545 -11.9138 26.114
rtibia 27.5607
rfoot -21.1348 20.1754
rtoes -4.00595
lfemur -19.8267 6.4223 -19.2722
ltibia 29.6249
lfoot -22.0261 -9.27008
ltoes -12.1471
655
root -8.14923 16.9939 -28.1506 -167.372 3.61528 -176.821
lowerback -6.65172 1.06965 3.49142
upperback -8.27769 2.27639 0.589145
thorax -4.79742 1.36454 -1.31826
lowerneck 21.7869 -6.28168 -30.6597
upperneck -8.35895 -20.9686 43.5306
head 2.85228 -14.7478 23.1882
rclavicle 6.76178e-015 7.46685e-015
rhumerus -38.2362 -6.07052 -84.9087
rradius 23.7253
rwrist 24.8299
rhand -7.58992 -0.593133
rfingers 7.12502
rthumb 18.3034 -29.752
lclavicle 6.76178e-015 7.46685e-015
lhumerus -42.3205 -10.3177 93.4241
lradius 35.3563
lwrist 38.0378
lhand -15.6874 -12.4136
lfingers 7.12502
lthumb 10.5017 17.304
rfemur -19.85 -11.8517 26.1152
rtibia 27.5576
rfoot -21.1232 20.2433
rtoes -3.96542
lfemur -19.7938 6.41087 -19.2629
ltibia 29.6225
lfoot -22.0185 -9.12297
ltoes -12.2261
656
root -8.14968 16.9936 -28.1478 -167.385 3.74303 -176.809
lowerback -6.62192 1.0783 3.48886
upperback -8.2829 2.28873 0.596942
thorax -4.81944 1.37016 -1.30956
lowerneck 21.7582 -6.2628 -30.6732
upperneck -8.25442 -20.9486 43.4768
head 2.86677 -14.7274 23.1549
rclavicle -2.38542e-015 -2.25248e-014
rhumerus -38.2209 -5.90977 -85.0452
rradius 23.7701
rwrist 24.7703
rhand -7.58299 -0.579068
rfingers 7.12502
rthumb 18.31 -29.7373
lclavicle -2.38542e-015 -2.25248e-014
lhumerus -42.3611 -10.2774 93.4562
lradius 35.248
lwrist 37.9669
lhand -15.6443 -12.3707
lfingers 7.12502
lthumb 10.5433 17.3449
rfemur -19.8517 -11.7993 26.1131
rtibia 27.5578
rfoot -21.1126 20.3162
rtoes -3.92162
lfemur -19.7627 6.40589 -19.2595
ltibia 29.6165
lfoot -22.0113 -8.98633
ltoes -12.2936
657
root -8.15029 16.9931 -28.1448 -167.4 3.8778 -176.802
lowerback -6.58259 1.08886 3.48659
upperback -8.29205 2.30418 0.599908
thorax -4.85068 1.37704 -1.3064
lowerneck 22.0392 -11.2625 -32.7204
upperneck -4.34071 -20.1409 42.4105
head 4.16095 -11.7643 22.8251
rclavicle -5.35787e-016 -4.32357e-015
rhumerus -38.2099 -5.75242 -85.1831
rradius 23.8182
rwrist 24.7016
rhand -7.58184 -0.563202
rfingers 7.12502
rthumb 18.3112 -29.7213
lclavicle -5.35787e-016 -4.32357e-015
lhumerus -42.4142 -10.2166 93.4731
lradius 35.1374
lwrist 37.8945
lhand -15.5991 -12.3397
lfingers 7.12502
lthumb 10.5869 17.3736
rfemur -19.8548 -11.7472 26.1058
rtibia 27.5612
rfoot -21.1004 20.3948
rtoes -3.86924
lfemur -19.7277 6.4026 -19.2612
ltibia 29.608
lfoot -22.0012 -8.84776
ltoes -12.3457
658
root -8.15101 16.9928 -28.1414 -167.411 4.00582 -176.797
lowerback -6.53846 1.09954 3.48648
upperback -8.30473 2.32045 0.600323
thorax -4.88819 1.38417 -1.30737
lowerneck 22.0096 -11.2345 -32.7231
upperneck -4.24458 -20.1153 42.3536
head 4.1684 -11.7442 22.7922
rclavicle 1.96346e-014 1.0461e-014
rhumerus -38.2001 -5.60897 -85.3101
rradius 23.8688
rwrist 24.6323
rhand -7.58445 -0.538651
rfingers 7.12502
rthumb 18.3086 -29.697
lclavicle 1.96346e-014 1.0461e-014
lhumerus -42.4764 -10.1392 93.4813
lradius 35.0313
lwrist 37.8278
lhand -15.5451 -12.2753
lfingers 7.12502
lthumb 10.639 17.4354
rfemur -19.8659 -11.7124 26.0993
rtibia 27.5663
rfoot -21.0884 20.4845
rtoes -3.80536
lfemur -19.6993 6.40446 -19.2662
ltibia 29.5983
lfoot -21.9874 -8.72335
ltoes -12.3874
659
root -8.15177 16.9926 -28.1377 -167.42 4.13137 -176.793
lowerback -6.49283 1.10882 3.4836
upperback -8.31885 2.33524 0.600522
thorax -4.92824 1.39074 -1.30718
lowerneck 21.9767 -11.2082 -32.7219
upperneck -4.14554 -20.0908 42.2925
head 4.17627 -11.724 22.7541
rclavicle 2.16334e-014 6.68413e-015
rhumerus -38.1947 -5.46678 -85.4312
rradius 23.9289
rwrist 24.5531
rhand -7.57781 -0.518357
rfingers 7.12502
rthumb 18.315 -29.6761
lclavicle 2.16334e-014 6.68413e-015
lhumerus -42.5429 -10.0452 93.4787
lradius 34.9283
lwrist 37.775
lhand -15.49 -12.1734
lfingers 7.12502
lthumb 10.6921 17.5345
rfemur -19.8819 -11.6913 26.0934
rtibia 27.5729
rfoot -21.0768 20.5863
rtoes -3.72981
lfemur -19.6748 6.41062 -19.2734
ltibia 29.588
lfoot -21.9702 -8.60982
ltoes -12.4108
